<svg height="600" version="1.1" width="800" xmlns="http://www.w3.org/2000/svg" preserveAspectRatio="xMidYMid meet" viewBox="0 0 600 442" xmlns:xlink="http://www.w3.org/1999/xlink"><desc>Created with Snap</desc><defs/><g id="root" contentwidth="484.4" contentheight="386.6">
          <rect class="background" />
          <g class="content" id="content" transform="matrix(1,0,0,1,89.8,219.85)">
            <g class="icon" style="mask: url(#mask);">
            <svg height="386.6" version="1.1" width="484.4" xmlns="http://www.w3.org/2000/svg" x="-32" y="-192.15"><desc>Created with Snap</desc><defs/><svg xmlns:xlink="http://www.w3.org/1999/xlink" version="1.1" xmlns="http://www.w3.org/2000/svg" viewBox="0 0 484.4 386.6"><defs/><g><path fill="#ff6633" stroke="none" paint-order="stroke fill markers" d=" M 232.2 124.85000000000001 L 252.2 124.85000000000001 L 252.2 34.85000000000001 L 232.2 34.85000000000001 M 127.35 124.85000000000001 L 147.35 124.85000000000001 L 147.35 94.85000000000001 L 127.35 94.85000000000001 M 357.04999999999995 124.85000000000001 L 337.04999999999995 124.85000000000001 L 337.04999999999995 94.85000000000001 L 357.04999999999995 94.85000000000001 M 232.2 261.75 L 252.2 261.75 L 252.2 351.75 L 232.2 351.75 M 127.35 261.75 L 147.35 261.75 L 147.35 291.75 L 127.35 291.75 M 357.04999999999995 261.75 L 337.04999999999995 261.75 L 337.04999999999995 291.75 L 357.04999999999995 291.75" style=""/><path fill="#336699" stroke="none" paint-order="stroke fill markers" d=" M 152.64999999999998 222.15 L 335.0833333333333 222.15 L 335.0833333333333 247.15000000000003 L 152.64999999999998 247.15000000000003" style=""/></g><desc>Created with Snap</desc></svg></svg></g>
            <g id="icon_name_and_slogan_gap">
            </g>
            <g class="name_and_slogan" id="name_and_slogan_id">
              <g class="name"><g id="nameDefaultGroup"><path d="M46.7 0.9L5.5 0.9L5.5 -52.2L47.8 -52.2L47.8 -37.7L35.1 -37.7L35.1 -41.6L19.2 -41.6L19.2 -9.5L36.7 -9.5L38 -13.1L49.8 -13.1L46.7 0.9M82.5 -17.1L73 -17.1L73 0.9L60.2 0.9L60.2 -52.1L103 -52.1L103 -17.1L96.8 -17.1L106.8 0.9L92.6 0.9L82.5 -17.1M73 -27.7L90 -27.7L90 -41.8L73 -41.8L73 -27.7M116.4 0.9L116.4 -52.3L129.4 -52.3L129.4 -10.2L149.8 -10.2L149.8 -52.3L162.8 -52.3L162.8 0.9L116.4 0.9M172.1 0.9L172.1 -9.9L176 -9.9L176 -41L172.1 -41L172.1 -52.1L219.3 -52.1L219.3 0.9L172.1 0.9M205.1 -41L189.4 -41L189.4 -9.9L205.1 -9.9L205.1 -41M273.1 0.9L273.1 -52.3L315.4 -52.3L315.4 -29.8L309.5 -25.1L317.4 -19.4L317.4 0.9L273.1 0.9M302.4 -41.8L285.9 -41.8L285.9 -30.6L302.4 -30.6L302.4 -41.8M304.5 -21.7L285.9 -21.7L285.9 -9.4L304.5 -9.4L304.5 -21.7M326.7 0.9L326.7 -38.8L368.1 -38.8L368.1 0.9L326.7 0.9M355 -29.3L339 -29.3L339 -8.2L355 -8.2L355 -29.3M414.9 -38.8L392.8 18.8L377.6 18.8L377.6 9.6L383.3 9.6L388.2 -3.2L384 -3.2L372.9 -38.8L386.1 -38.8L393 -16.1L401.5 -38.8L414.9 -38.8z" style="" fill="#336699" id="namepathdata"/></g></g>
              <g class="slogan"><g id="sloganDefaultGroup"><path d="M124.64999999999998 34.9L129.74999999999997 34.9L133.45 45.1L133.45 34.9L137.14999999999998 34.9L137.14999999999998 49.6L131.74999999999997 49.6L128.35 39.9L128.35 49.6L124.64999999999998 49.6L124.64999999999998 34.9M139.64999999999998 49.699999999999996L139.64999999999998 38.599999999999994L151.14999999999998 38.599999999999994L151.14999999999998 49.699999999999996L139.64999999999998 49.699999999999996M147.54999999999998 41.3L143.04999999999998 41.3L143.04999999999998 47.1L147.54999999999998 47.1L147.54999999999998 41.3M161.75 46.199999999999996L160.95 49.6L154.74999999999997 49.6L154.74999999999997 41L152.74999999999997 41L152.74999999999997 38.599999999999994L154.74999999999997 38.599999999999994L154.74999999999997 36.2L158.14999999999998 36.2L158.14999999999998 38.599999999999994L161.54999999999998 38.599999999999994L161.54999999999998 41L158.14999999999998 41L158.14999999999998 47.199999999999996L158.84999999999997 47.199999999999996L159.14999999999998 46.199999999999996L161.75 46.199999999999996M173.95 38.7L173.95 49.6L170.14999999999998 49.6L170.14999999999998 41.2L166.75 41.2L166.75 49.6L163.34999999999997 49.6L163.34999999999997 34L166.75 34L166.75 38.7L173.95 38.7M175.84999999999997 37.2L175.84999999999997 34L179.34999999999997 34L179.34999999999997 37.2L175.84999999999997 37.2M175.84999999999997 49.6L175.84999999999997 38.599999999999994L179.34999999999997 38.599999999999994L179.34999999999997 49.6L175.84999999999997 49.6M188.54999999999998 49.699999999999996L188.54999999999998 41.4L184.75 41.4L184.75 49.699999999999996L181.34999999999997 49.699999999999996L181.34999999999997 38.7L191.95 38.7L191.95 49.699999999999996L188.54999999999998 49.699999999999996M205.25 38.599999999999994L205.25 54.6L195.14999999999998 54.6L194.14999999999998 51.3L197.64999999999998 51.3L197.95 52.3L201.75 52.3L201.75 49.5L194.14999999999998 49.5L194.14999999999998 38.599999999999994L205.25 38.599999999999994M201.75 47.1L201.75 41.2L197.45 41.2L197.45 47.1L201.75 47.1M223.34999999999997 37.7L223.34999999999997 41L230.84999999999997 41L230.84999999999997 49.699999999999996L220.25 49.699999999999996L219.54999999999998 46L223.34999999999997 46L223.64999999999998 47L227.04999999999998 47L227.04999999999998 43.8L219.84999999999997 43.8L219.84999999999997 35L230.64999999999998 35L230.64999999999998 38.8L226.84999999999997 38.8L226.84999999999997 37.7L223.34999999999997 37.7M243.95 49.5L236.25 49.5L236.25 54.6L232.84999999999997 54.6L232.84999999999997 38.599999999999994L243.95 38.599999999999994L243.95 49.5M240.54999999999998 41.2L236.25 41.2L236.25 47.1L240.54999999999998 47.1L240.54999999999998 41.2M257.65 46.4L256.95 49.699999999999996L245.84999999999997 49.699999999999996L245.84999999999997 38.599999999999994L257.45 38.599999999999994L257.45 45.1L249.45 45.1L249.45 47.5L254.14999999999998 47.5L254.54999999999998 46.4L257.65 46.4M249.45 40.8L249.45 42.9L253.95 42.9L253.95 40.8L249.45 40.8M259.75 38.599999999999994L271.35 38.599999999999994L271.35 42.6L267.95 42.6L267.95 41.2L263.25 41.2L263.25 47L267.85 47L268.04999999999995 46L271.45 46L270.65 49.6L259.75 49.6L259.75 38.599999999999994M273.54999999999995 37.2L273.54999999999995 34L277.04999999999995 34L277.04999999999995 37.2L273.54999999999995 37.2M273.54999999999995 49.6L273.54999999999995 38.599999999999994L277.04999999999995 38.599999999999994L277.04999999999995 49.6L273.54999999999995 49.6M290.85 47.199999999999996L290.85 49.6L278.95 49.6L278.95 43L286.75 43L286.75 41.099999999999994L282.45 41.099999999999994L282.45 41.8L279.15 41.8L279.15 38.599999999999994L290.04999999999995 38.599999999999994L290.04999999999995 47.199999999999996L290.85 47.199999999999996M286.75 47.199999999999996L286.75 45.4L282.35 45.4L282.35 47.199999999999996L286.75 47.199999999999996M293.04999999999995 49.699999999999996L293.04999999999995 34L296.65 34L296.65 46.8L298.95 46.8L298.95 49.699999999999996L293.04999999999995 49.699999999999996z" style="" fill="#ff6633" id="sloganpathdata"/></g></g>
            </g>
            <g class="border">
            </g>
          </g>
          
          <defs id="defs">
            <mask xmlns="http://www.w3.org/2000/svg" id="mask">
                <rect id="showAll" fill="white" x="-32" y="-192.15" width="484.4" height="386.6"/>
                <rect id="hideNameBg" fill="black" x="0" y="0" width="0" height="0" stroke-width="2" stroke="black"/>
                <rect id="hideSloganBg" fill="black" x="0" y="0" width="0" height="0" stroke-width="2" stroke="black"/>
            <path d="M46.7 0.9L5.5 0.9L5.5 -52.2L47.8 -52.2L47.8 -37.7L35.1 -37.7L35.1 -41.6L19.2 -41.6L19.2 -9.5L36.7 -9.5L38 -13.1L49.8 -13.1L46.7 0.9M82.5 -17.1L73 -17.1L73 0.9L60.2 0.9L60.2 -52.1L103 -52.1L103 -17.1L96.8 -17.1L106.8 0.9L92.6 0.9L82.5 -17.1M73 -27.7L90 -27.7L90 -41.8L73 -41.8L73 -27.7M116.4 0.9L116.4 -52.3L129.4 -52.3L129.4 -10.2L149.8 -10.2L149.8 -52.3L162.8 -52.3L162.8 0.9L116.4 0.9M172.1 0.9L172.1 -9.9L176 -9.9L176 -41L172.1 -41L172.1 -52.1L219.3 -52.1L219.3 0.9L172.1 0.9M205.1 -41L189.4 -41L189.4 -9.9L205.1 -9.9L205.1 -41M273.1 0.9L273.1 -52.3L315.4 -52.3L315.4 -29.8L309.5 -25.1L317.4 -19.4L317.4 0.9L273.1 0.9M302.4 -41.8L285.9 -41.8L285.9 -30.6L302.4 -30.6L302.4 -41.8M304.5 -21.7L285.9 -21.7L285.9 -9.4L304.5 -9.4L304.5 -21.7M326.7 0.9L326.7 -38.8L368.1 -38.8L368.1 0.9L326.7 0.9M355 -29.3L339 -29.3L339 -8.2L355 -8.2L355 -29.3M414.9 -38.8L392.8 18.8L377.6 18.8L377.6 9.6L383.3 9.6L388.2 -3.2L384 -3.2L372.9 -38.8L386.1 -38.8L393 -16.1L401.5 -38.8L414.9 -38.8z" style="stroke-width: 0;" fill="#000000" id="masknamepathdata" stroke="#000000" paint-order="stroke" transform="matrix(1,0,0,1,0,0)"/><path d="M124.64999999999998 34.9L129.74999999999997 34.9L133.45 45.1L133.45 34.9L137.14999999999998 34.9L137.14999999999998 49.6L131.74999999999997 49.6L128.35 39.9L128.35 49.6L124.64999999999998 49.6L124.64999999999998 34.9M139.64999999999998 49.699999999999996L139.64999999999998 38.599999999999994L151.14999999999998 38.599999999999994L151.14999999999998 49.699999999999996L139.64999999999998 49.699999999999996M147.54999999999998 41.3L143.04999999999998 41.3L143.04999999999998 47.1L147.54999999999998 47.1L147.54999999999998 41.3M161.75 46.199999999999996L160.95 49.6L154.74999999999997 49.6L154.74999999999997 41L152.74999999999997 41L152.74999999999997 38.599999999999994L154.74999999999997 38.599999999999994L154.74999999999997 36.2L158.14999999999998 36.2L158.14999999999998 38.599999999999994L161.54999999999998 38.599999999999994L161.54999999999998 41L158.14999999999998 41L158.14999999999998 47.199999999999996L158.84999999999997 47.199999999999996L159.14999999999998 46.199999999999996L161.75 46.199999999999996M173.95 38.7L173.95 49.6L170.14999999999998 49.6L170.14999999999998 41.2L166.75 41.2L166.75 49.6L163.34999999999997 49.6L163.34999999999997 34L166.75 34L166.75 38.7L173.95 38.7M175.84999999999997 37.2L175.84999999999997 34L179.34999999999997 34L179.34999999999997 37.2L175.84999999999997 37.2M175.84999999999997 49.6L175.84999999999997 38.599999999999994L179.34999999999997 38.599999999999994L179.34999999999997 49.6L175.84999999999997 49.6M188.54999999999998 49.699999999999996L188.54999999999998 41.4L184.75 41.4L184.75 49.699999999999996L181.34999999999997 49.699999999999996L181.34999999999997 38.7L191.95 38.7L191.95 49.699999999999996L188.54999999999998 49.699999999999996M205.25 38.599999999999994L205.25 54.6L195.14999999999998 54.6L194.14999999999998 51.3L197.64999999999998 51.3L197.95 52.3L201.75 52.3L201.75 49.5L194.14999999999998 49.5L194.14999999999998 38.599999999999994L205.25 38.599999999999994M201.75 47.1L201.75 41.2L197.45 41.2L197.45 47.1L201.75 47.1M223.34999999999997 37.7L223.34999999999997 41L230.84999999999997 41L230.84999999999997 49.699999999999996L220.25 49.699999999999996L219.54999999999998 46L223.34999999999997 46L223.64999999999998 47L227.04999999999998 47L227.04999999999998 43.8L219.84999999999997 43.8L219.84999999999997 35L230.64999999999998 35L230.64999999999998 38.8L226.84999999999997 38.8L226.84999999999997 37.7L223.34999999999997 37.7M243.95 49.5L236.25 49.5L236.25 54.6L232.84999999999997 54.6L232.84999999999997 38.599999999999994L243.95 38.599999999999994L243.95 49.5M240.54999999999998 41.2L236.25 41.2L236.25 47.1L240.54999999999998 47.1L240.54999999999998 41.2M257.65 46.4L256.95 49.699999999999996L245.84999999999997 49.699999999999996L245.84999999999997 38.599999999999994L257.45 38.599999999999994L257.45 45.1L249.45 45.1L249.45 47.5L254.14999999999998 47.5L254.54999999999998 46.4L257.65 46.4M249.45 40.8L249.45 42.9L253.95 42.9L253.95 40.8L249.45 40.8M259.75 38.599999999999994L271.35 38.599999999999994L271.35 42.6L267.95 42.6L267.95 41.2L263.25 41.2L263.25 47L267.85 47L268.04999999999995 46L271.45 46L270.65 49.6L259.75 49.6L259.75 38.599999999999994M273.54999999999995 37.2L273.54999999999995 34L277.04999999999995 34L277.04999999999995 37.2L273.54999999999995 37.2M273.54999999999995 49.6L273.54999999999995 38.599999999999994L277.04999999999995 38.599999999999994L277.04999999999995 49.6L273.54999999999995 49.6M290.85 47.199999999999996L290.85 49.6L278.95 49.6L278.95 43L286.75 43L286.75 41.099999999999994L282.45 41.099999999999994L282.45 41.8L279.15 41.8L279.15 38.599999999999994L290.04999999999995 38.599999999999994L290.04999999999995 47.199999999999996L290.85 47.199999999999996M286.75 47.199999999999996L286.75 45.4L282.35 45.4L282.35 47.199999999999996L286.75 47.199999999999996M293.04999999999995 49.699999999999996L293.04999999999995 34L296.65 34L296.65 46.8L298.95 46.8L298.95 49.699999999999996L293.04999999999995 49.699999999999996z" style="stroke-width: 0;" fill="#000000" id="masksloganpathdata" stroke="#000000" paint-order="stroke" transform="matrix(1,0,0,1,0,0)"/></mask>
          </defs>
          
        </g>
        </svg>